<svg version="1.1" xmlns="http://www.w3.org/2000/svg" viewBox="0 0 1425.5146382649737 1245.401041666667" width="1425.5146382649737" height="1245.401041666667">
  <!-- svg-source:excalidraw -->

  <defs>
    <style>
      @font-face {
        font-family: "Virgil";
        src: url("https://excalidraw.com/Virgil.woff2");
      }
      @font-face {
        font-family: "Cascadia";
        src: url("https://excalidraw.com/Cascadia.woff2");
      }
    </style>
  </defs>
  <rect x="0" y="0" width="1425.5146382649737" height="1245.401041666667" fill="#ffffff"></rect><g stroke-linecap="round"><g transform="translate(1061.458730061849 235.189219156901) rotate(0 -369.85679626464844 382.80530293782556)"><path d="M0 0 C-195.66 202.51, -391.32 405.02, -739.71 765.61" stroke="#c6c7c7" stroke-width="4.5" fill="none" stroke-dasharray="8 12"></path></g></g><g stroke-linecap="round"><g transform="translate(1061.84348042806 232.91489664713535) rotate(294.50301962535 -369.85679626464844 382.8053029378257)"><path d="M0 0 C-235.72 243.97, -471.43 487.94, -739.71 765.61" stroke="#c6c7c7" stroke-width="4.5" fill="none" stroke-dasharray="8 12"></path></g></g><g stroke-linecap="round"><g transform="translate(1059.5908762613933 234.94183603922517) rotate(263.1941352901596 -369.85679626464844 382.8053029378256)"><path d="M0 0 C-209.17 216.49, -418.34 432.99, -739.71 765.61" stroke="#c6c7c7" stroke-width="4.5" fill="none" stroke-dasharray="8 12"></path></g></g><g stroke-linecap="round"><g transform="translate(1065.5211537679038 231.52745310465488) rotate(232.58864927936574 -369.85679626464844 382.8053029378256)"><path d="M0 0 C-192.89 199.64, -385.78 399.28, -739.71 765.61" stroke="#c6c7c7" stroke-width="4.5" fill="none" stroke-dasharray="8 12"></path></g></g><g stroke-linecap="round"><g transform="translate(1066.8667755126953 228.81333414713524) rotate(205.4278773466815 -369.85679626464844 382.8053029378257)"><path d="M0 0 C-230.56 238.64, -461.13 477.27, -739.71 765.61" stroke="#c6c7c7" stroke-width="4.5" fill="none" stroke-dasharray="8 12"></path></g></g><g stroke-linecap="round"><g transform="translate(1060.5038604736328 236.18311309814447) rotate(329.3917654309957 -369.8567962646485 382.8053029378256)"><path d="M0 0 C-275.14 284.77, -550.28 569.54, -739.71 765.61" stroke="#c6c7c7" stroke-width="4.5" fill="none" stroke-dasharray="8 12"></path></g></g><g stroke-linecap="round" transform="translate(609.2885233561196 531.210693359375) rotate(0 82.51230875651049 83.94821166992188)"><path d="M165.02 83.95 C165.02 86.87, 164.87 89.81, 164.57 92.72 C164.27 95.63, 163.82 98.54, 163.22 101.4 C162.62 104.26, 161.87 107.11, 160.99 109.89 C160.1 112.67, 159.06 115.42, 157.89 118.09 C156.72 120.77, 155.41 123.39, 153.97 125.92 C152.53 128.46, 150.96 130.93, 149.27 133.29 C147.58 135.66, 145.75 137.95, 143.83 140.12 C141.91 142.29, 139.86 144.38, 137.72 146.33 C135.59 148.29, 133.34 150.14, 131.01 151.86 C128.69 153.58, 126.26 155.19, 123.77 156.65 C121.28 158.11, 118.7 159.45, 116.07 160.64 C113.45 161.83, 110.74 162.88, 108.01 163.79 C105.28 164.69, 102.48 165.45, 99.67 166.06 C96.86 166.67, 94 167.13, 91.14 167.44 C88.28 167.74, 85.39 167.9, 82.51 167.9 C79.64 167.9, 76.75 167.74, 73.89 167.44 C71.03 167.13, 68.17 166.67, 65.36 166.06 C62.54 165.45, 59.75 164.69, 57.01 163.79 C54.28 162.88, 51.58 161.83, 48.95 160.64 C46.33 159.45, 43.75 158.11, 41.26 156.65 C38.77 155.19, 36.34 153.58, 34.01 151.86 C31.69 150.14, 29.44 148.29, 27.3 146.33 C25.16 144.38, 23.12 142.29, 21.19 140.12 C19.27 137.95, 17.45 135.66, 15.76 133.29 C14.07 130.93, 12.49 128.46, 11.05 125.92 C9.62 123.39, 8.3 120.77, 7.13 118.09 C5.96 115.42, 4.93 112.67, 4.04 109.89 C3.15 107.11, 2.4 104.26, 1.8 101.4 C1.21 98.54, 0.75 95.63, 0.45 92.72 C0.15 89.81, 0 86.87, 0 83.95 C0 81.02, 0.15 78.08, 0.45 75.17 C0.75 72.26, 1.21 69.36, 1.8 66.49 C2.4 63.63, 3.15 60.79, 4.04 58.01 C4.93 55.22, 5.96 52.48, 7.13 49.8 C8.3 47.13, 9.62 44.51, 11.05 41.97 C12.49 39.44, 14.07 36.97, 15.76 34.6 C17.45 32.24, 19.27 29.95, 21.19 27.78 C23.12 25.6, 25.16 23.52, 27.3 21.56 C29.44 19.61, 31.69 17.75, 34.01 16.03 C36.34 14.31, 38.77 12.71, 41.26 11.25 C43.75 9.78, 46.33 8.45, 48.95 7.26 C51.58 6.07, 54.28 5.01, 57.01 4.11 C59.75 3.2, 62.54 2.44, 65.36 1.83 C68.17 1.23, 71.03 0.77, 73.89 0.46 C76.75 0.15, 79.64 0, 82.51 0 C85.39 0, 88.28 0.15, 91.14 0.46 C94 0.77, 96.86 1.23, 99.67 1.83 C102.48 2.44, 105.28 3.2, 108.01 4.11 C110.74 5.01, 113.45 6.07, 116.07 7.26 C118.7 8.45, 121.28 9.78, 123.77 11.25 C126.26 12.71, 128.69 14.31, 131.01 16.03 C133.34 17.75, 135.59 19.61, 137.72 21.56 C139.86 23.52, 141.91 25.6, 143.83 27.78 C145.75 29.95, 147.58 32.24, 149.27 34.6 C150.96 36.97, 152.53 39.44, 153.97 41.97 C155.41 44.51, 156.72 47.13, 157.89 49.8 C159.06 52.48, 160.1 55.22, 160.99 58.01 C161.87 60.79, 162.62 63.63, 163.22 66.49 C163.82 69.36, 164.27 72.26, 164.57 75.17 C164.87 78.08, 164.95 82.49, 165.02 83.95 C165.1 85.41, 165.1 82.49, 165.02 83.95" stroke="#c6c7c7" stroke-width="4.5" fill="none" stroke-dasharray="1.5 10"></path></g><g stroke-linecap="round" transform="translate(486.40095011393237 411.4985249837239) rotate(0 205.15045166015625 209.0422821044922)"><path d="M410.3 209.04 C410.3 213.8, 410.14 218.56, 409.82 223.31 C409.5 228.05, 409.03 232.8, 408.39 237.51 C407.75 242.22, 406.96 246.92, 406.01 251.57 C405.06 256.23, 403.95 260.86, 402.69 265.44 C401.43 270.02, 400.02 274.57, 398.46 279.05 C396.89 283.53, 395.18 287.96, 393.32 292.32 C391.46 296.69, 389.45 300.99, 387.3 305.22 C385.15 309.44, 382.86 313.59, 380.43 317.66 C378.01 321.72, 375.44 325.71, 372.75 329.59 C370.06 333.48, 367.23 337.28, 364.29 340.97 C361.34 344.65, 358.27 348.25, 355.08 351.72 C351.9 355.2, 348.59 358.57, 345.18 361.82 C341.77 365.06, 338.24 368.2, 334.62 371.2 C331 374.2, 327.27 377.08, 323.46 379.82 C319.64 382.57, 315.73 385.18, 311.74 387.65 C307.76 390.12, 303.68 392.46, 299.53 394.65 C295.39 396.84, 291.16 398.88, 286.88 400.78 C282.6 402.67, 278.25 404.42, 273.85 406.01 C269.45 407.61, 264.99 409.05, 260.5 410.33 C256.01 411.62, 251.46 412.74, 246.89 413.71 C242.32 414.68, 237.71 415.49, 233.09 416.14 C228.46 416.79, 223.81 417.27, 219.15 417.6 C214.49 417.92, 209.82 418.08, 205.15 418.08 C200.48 418.08, 195.81 417.92, 191.15 417.6 C186.49 417.27, 181.84 416.79, 177.22 416.14 C172.59 415.49, 167.98 414.68, 163.41 413.71 C158.84 412.74, 154.3 411.62, 149.8 410.33 C145.31 409.05, 140.85 407.61, 136.45 406.01 C132.05 404.42, 127.7 402.67, 123.42 400.78 C119.14 398.88, 114.91 396.84, 110.77 394.65 C106.62 392.46, 102.54 390.12, 98.56 387.65 C94.57 385.18, 90.66 382.57, 86.84 379.82 C83.03 377.08, 79.3 374.2, 75.68 371.2 C72.06 368.2, 68.53 365.06, 65.12 361.82 C61.71 358.57, 58.4 355.2, 55.22 351.72 C52.03 348.25, 48.96 344.65, 46.01 340.97 C43.07 337.28, 40.24 333.48, 37.55 329.59 C34.86 325.71, 32.29 321.72, 29.87 317.66 C27.44 313.59, 25.15 309.44, 23 305.22 C20.85 300.99, 18.84 296.69, 16.98 292.32 C15.12 287.96, 13.41 283.53, 11.85 279.05 C10.28 274.57, 8.87 270.02, 7.61 265.44 C6.35 260.86, 5.24 256.23, 4.29 251.57 C3.34 246.92, 2.55 242.22, 1.91 237.51 C1.28 232.8, 0.8 228.05, 0.48 223.31 C0.16 218.56, 0 213.8, 0 209.04 C0 204.29, 0.16 199.52, 0.48 194.78 C0.8 190.03, 1.28 185.29, 1.91 180.58 C2.55 175.87, 3.34 171.17, 4.29 166.51 C5.24 161.86, 6.35 157.22, 7.61 152.64 C8.87 148.06, 10.28 143.52, 11.85 139.04 C13.41 134.56, 15.12 130.12, 16.98 125.76 C18.84 121.4, 20.85 117.09, 23 112.87 C25.15 108.65, 27.44 104.49, 29.87 100.43 C32.29 96.36, 34.86 92.38, 37.55 88.49 C40.24 84.61, 43.07 80.81, 46.01 77.12 C48.96 73.43, 52.03 69.84, 55.22 66.36 C58.4 62.88, 61.71 59.51, 65.12 56.27 C68.53 53.02, 72.06 49.89, 75.68 46.89 C79.3 43.88, 83.03 41, 86.84 38.26 C90.66 35.52, 94.57 32.9, 98.56 30.43 C102.54 27.96, 106.62 25.62, 110.77 23.44 C114.91 21.25, 119.14 19.2, 123.42 17.31 C127.7 15.41, 132.05 13.66, 136.45 12.07 C140.85 10.48, 145.31 9.03, 149.8 7.75 C154.3 6.47, 158.84 5.34, 163.41 4.37 C167.98 3.4, 172.59 2.59, 177.22 1.95 C181.84 1.3, 186.49 0.81, 191.15 0.49 C195.81 0.16, 200.48 0, 205.15 0 C209.82 0, 214.49 0.16, 219.15 0.49 C223.81 0.81, 228.46 1.3, 233.09 1.95 C237.71 2.59, 242.32 3.4, 246.89 4.37 C251.46 5.34, 256.01 6.47, 260.5 7.75 C264.99 9.03, 269.45 10.48, 273.85 12.07 C278.25 13.66, 282.6 15.41, 286.88 17.31 C291.16 19.2, 295.39 21.25, 299.53 23.44 C303.68 25.62, 307.76 27.96, 311.74 30.43 C315.73 32.9, 319.64 35.52, 323.46 38.26 C327.27 41, 331 43.88, 334.62 46.89 C338.24 49.89, 341.77 53.02, 345.18 56.27 C348.59 59.51, 351.9 62.88, 355.08 66.36 C358.27 69.84, 361.34 73.43, 364.29 77.12 C367.23 80.81, 370.06 84.61, 372.75 88.49 C375.44 92.38, 378.01 96.36, 380.43 100.43 C382.86 104.49, 385.15 108.65, 387.3 112.87 C389.45 117.09, 391.46 121.4, 393.32 125.76 C395.18 130.12, 396.89 134.56, 398.46 139.04 C400.02 143.52, 401.43 148.06, 402.69 152.64 C403.95 157.22, 405.06 161.86, 406.01 166.51 C406.96 171.17, 407.75 175.87, 408.39 180.58 C409.03 185.29, 409.5 190.03, 409.82 194.78 C410.14 199.52, 410.3 204.29, 410.3 209.04" stroke="#c6c7c7" stroke-width="4.5" fill="none" stroke-dasharray="1.5 10"></path></g><g stroke-linecap="round" transform="translate(375.9842325846355 306.83269246419263) rotate(0 311.6283162434896 314.66288248697924)"><path d="M623.26 314.66 C623.26 320.34, 623.1 326.03, 622.8 331.7 C622.5 337.37, 622.04 343.04, 621.43 348.68 C620.82 354.33, 620.06 359.97, 619.15 365.57 C618.24 371.17, 617.18 376.76, 615.97 382.31 C614.76 387.85, 613.4 393.37, 611.9 398.84 C610.39 404.32, 608.74 409.75, 606.94 415.14 C605.15 420.52, 603.21 425.86, 601.12 431.13 C599.04 436.41, 596.82 441.63, 594.45 446.79 C592.09 451.94, 589.59 457.04, 586.96 462.05 C584.32 467.07, 581.55 472.02, 578.65 476.89 C575.75 481.75, 572.72 486.55, 569.56 491.25 C566.4 495.95, 563.12 500.57, 559.71 505.09 C556.31 509.61, 552.78 514.04, 549.14 518.37 C545.5 522.7, 541.74 526.93, 537.87 531.06 C534 535.18, 530.02 539.2, 525.93 543.11 C521.85 547.01, 517.66 550.81, 513.37 554.49 C509.09 558.16, 504.69 561.73, 500.22 565.16 C495.74 568.6, 491.16 571.92, 486.51 575.11 C481.86 578.29, 477.11 581.36, 472.29 584.28 C467.47 587.21, 462.57 590.01, 457.6 592.67 C452.63 595.33, 447.58 597.86, 442.48 600.24 C437.37 602.63, 432.2 604.88, 426.97 606.98 C421.75 609.08, 416.46 611.04, 411.13 612.85 C405.8 614.67, 400.42 616.34, 395 617.86 C389.58 619.38, 384.11 620.75, 378.62 621.97 C373.13 623.19, 367.59 624.26, 362.04 625.18 C356.49 626.1, 350.91 626.87, 345.32 627.48 C339.73 628.1, 334.12 628.56, 328.5 628.86 C322.88 629.17, 317.25 629.33, 311.63 629.33 C306 629.33, 300.37 629.17, 294.76 628.86 C289.14 628.56, 283.53 628.1, 277.94 627.48 C272.34 626.87, 266.76 626.1, 261.21 625.18 C255.66 624.26, 250.13 623.19, 244.64 621.97 C239.15 620.75, 233.68 619.38, 228.26 617.86 C222.84 616.34, 217.45 614.67, 212.12 612.85 C206.8 611.04, 201.51 609.08, 196.28 606.98 C191.06 604.88, 185.88 602.63, 180.78 600.24 C175.68 597.86, 170.63 595.33, 165.66 592.67 C160.69 590.01, 155.79 587.21, 150.97 584.28 C146.15 581.36, 141.4 578.29, 136.75 575.11 C132.09 571.92, 127.52 568.6, 123.04 565.16 C118.56 561.73, 114.17 558.16, 109.88 554.49 C105.6 550.81, 101.4 547.01, 97.32 543.11 C93.24 539.2, 89.26 535.18, 85.39 531.06 C81.52 526.93, 77.76 522.7, 74.12 518.37 C70.48 514.04, 66.95 509.61, 63.54 505.09 C60.14 500.57, 56.85 495.95, 53.7 491.25 C50.54 486.55, 47.51 481.75, 44.61 476.89 C41.71 472.02, 38.94 467.07, 36.3 462.05 C33.67 457.04, 31.16 451.94, 28.8 446.79 C26.44 441.63, 24.21 436.41, 22.13 431.13 C20.05 425.86, 18.11 420.52, 16.31 415.14 C14.52 409.75, 12.86 404.32, 11.36 398.84 C9.85 393.37, 8.49 387.85, 7.29 382.31 C6.08 376.76, 5.02 371.17, 4.11 365.57 C3.2 359.97, 2.43 354.33, 1.83 348.68 C1.22 343.04, 0.76 337.37, 0.46 331.7 C0.15 326.03, 0 320.34, 0 314.66 C0 308.98, 0.15 303.3, 0.46 297.63 C0.76 291.96, 1.22 286.29, 1.83 280.64 C2.43 275, 3.2 269.36, 4.11 263.76 C5.02 258.15, 6.08 252.57, 7.29 247.02 C8.49 241.47, 9.85 235.95, 11.36 230.48 C12.86 225.01, 14.52 219.57, 16.31 214.19 C18.11 208.81, 20.05 203.47, 22.13 198.19 C24.21 192.92, 26.44 187.69, 28.8 182.54 C31.16 177.39, 33.67 172.29, 36.3 167.27 C38.94 162.26, 41.71 157.3, 44.61 152.44 C47.51 147.57, 50.54 142.78, 53.7 138.08 C56.85 133.38, 60.14 128.76, 63.54 124.24 C66.95 119.72, 70.48 115.28, 74.12 110.95 C77.76 106.63, 81.52 102.39, 85.39 98.27 C89.26 94.15, 93.24 90.12, 97.32 86.22 C101.4 82.31, 105.6 78.51, 109.88 74.84 C114.17 71.16, 118.56 67.6, 123.04 64.16 C127.52 60.73, 132.09 57.41, 136.75 54.22 C141.4 51.03, 146.15 47.97, 150.97 45.04 C155.79 42.11, 160.69 39.31, 165.66 36.65 C170.63 33.99, 175.68 31.47, 180.78 29.08 C185.88 26.7, 191.06 24.45, 196.28 22.35 C201.51 20.25, 206.8 18.28, 212.12 16.47 C217.45 14.66, 222.84 12.99, 228.26 11.47 C233.68 9.95, 239.15 8.58, 244.64 7.36 C250.13 6.14, 255.66 5.06, 261.21 4.15 C266.76 3.23, 272.34 2.46, 277.94 1.84 C283.53 1.23, 289.14 0.77, 294.76 0.46 C300.37 0.15, 306 0, 311.63 0 C317.25 0, 322.88 0.15, 328.5 0.46 C334.12 0.77, 339.73 1.23, 345.32 1.84 C350.91 2.46, 356.49 3.23, 362.04 4.15 C367.59 5.06, 373.13 6.14, 378.62 7.36 C384.11 8.58, 389.58 9.95, 395 11.47 C400.42 12.99, 405.8 14.66, 411.13 16.47 C416.46 18.28, 421.75 20.25, 426.97 22.35 C432.2 24.45, 437.37 26.7, 442.48 29.08 C447.58 31.47, 452.63 33.99, 457.6 36.65 C462.57 39.31, 467.47 42.11, 472.29 45.04 C477.11 47.97, 481.86 51.03, 486.51 54.22 C491.16 57.41, 495.74 60.73, 500.22 64.16 C504.69 67.6, 509.09 71.16, 513.37 74.84 C517.66 78.51, 521.85 82.31, 525.93 86.22 C530.02 90.12, 534 94.15, 537.87 98.27 C541.74 102.39, 545.5 106.63, 549.14 110.95 C552.78 115.28, 556.31 119.72, 559.71 124.24 C563.12 128.76, 566.4 133.38, 569.56 138.08 C572.72 142.78, 575.75 147.57, 578.65 152.44 C581.55 157.3, 584.32 162.26, 586.96 167.27 C589.59 172.29, 592.09 177.39, 594.45 182.54 C596.82 187.69, 599.04 192.92, 601.12 198.19 C603.21 203.47, 605.15 208.81, 606.94 214.19 C608.74 219.57, 610.39 225.01, 611.9 230.48 C613.4 235.95, 614.76 241.47, 615.97 247.02 C617.18 252.57, 618.24 258.15, 619.15 263.76 C620.06 269.36, 620.82 275, 621.43 280.64 C622.04 286.29, 622.5 291.96, 622.8 297.63 C623.1 303.3, 623.26 308.98, 623.26 314.66" stroke="#c6c7c7" stroke-width="4.5" fill="none" stroke-dasharray="1.5 10"></path></g><g stroke-linecap="round" transform="translate(262.2870279947915 185.48873647054035) rotate(0 429.5681762695311 431.9009908040365)"><path d="M859.14 431.9 C859.14 438.55, 858.98 445.21, 858.68 451.85 C858.37 458.49, 857.91 465.13, 857.3 471.75 C856.69 478.37, 855.93 484.99, 855.02 491.57 C854.1 498.16, 853.04 504.73, 851.82 511.26 C850.61 517.8, 849.24 524.31, 847.73 530.78 C846.21 537.26, 844.55 543.7, 842.74 550.1 C840.93 556.49, 838.97 562.85, 836.87 569.16 C834.77 575.46, 832.52 581.72, 830.13 587.92 C827.74 594.12, 825.21 600.27, 822.53 606.35 C819.86 612.44, 817.05 618.46, 814.1 624.42 C811.15 630.37, 808.07 636.26, 804.85 642.07 C801.63 647.87, 798.28 653.61, 794.79 659.27 C791.31 664.92, 787.7 670.5, 783.96 675.98 C780.22 681.47, 776.36 686.87, 772.37 692.18 C768.39 697.49, 764.27 702.7, 760.05 707.82 C755.82 712.93, 751.48 717.96, 747.02 722.87 C742.57 727.78, 737.99 732.6, 733.32 737.3 C728.64 742, 723.85 746.6, 718.97 751.08 C714.08 755.56, 709.08 759.93, 704 764.18 C698.91 768.42, 693.72 772.56, 688.44 776.57 C683.16 780.57, 677.79 784.46, 672.33 788.22 C666.88 791.98, 661.33 795.61, 655.71 799.11 C650.08 802.61, 644.38 805.98, 638.6 809.22 C632.82 812.45, 626.96 815.56, 621.04 818.52 C615.12 821.49, 609.13 824.32, 603.08 827 C597.03 829.69, 590.91 832.23, 584.75 834.64 C578.58 837.04, 572.35 839.3, 566.08 841.41 C559.81 843.53, 553.49 845.49, 547.13 847.31 C540.76 849.13, 534.36 850.81, 527.92 852.33 C521.48 853.85, 515 855.23, 508.5 856.45 C502 857.67, 495.47 858.74, 488.92 859.66 C482.37 860.58, 475.79 861.35, 469.2 861.96 C462.62 862.57, 456.01 863.03, 449.41 863.34 C442.8 863.65, 436.18 863.8, 429.57 863.8 C422.96 863.8, 416.34 863.65, 409.73 863.34 C403.12 863.03, 396.52 862.57, 389.93 861.96 C383.35 861.35, 376.77 860.58, 370.22 859.66 C363.67 858.74, 357.14 857.67, 350.64 856.45 C344.13 855.23, 337.66 853.85, 331.22 852.33 C324.78 850.81, 318.37 849.13, 312.01 847.31 C305.65 845.49, 299.33 843.53, 293.06 841.41 C286.78 839.3, 280.56 837.04, 274.39 834.64 C268.22 832.23, 262.11 829.69, 256.06 827 C250.01 824.32, 244.01 821.49, 238.09 818.52 C232.17 815.56, 226.32 812.45, 220.54 809.22 C214.76 805.98, 209.05 802.61, 203.43 799.11 C197.81 795.61, 192.26 791.98, 186.8 788.22 C181.35 784.46, 175.97 780.57, 170.7 776.57 C165.42 772.56, 160.23 768.42, 155.14 764.18 C150.05 759.93, 145.06 755.56, 140.17 751.08 C135.28 746.6, 130.49 742, 125.82 737.3 C121.14 732.6, 116.57 727.78, 112.11 722.87 C107.66 717.96, 103.31 712.93, 99.09 707.82 C94.86 702.7, 90.75 697.49, 86.77 692.18 C82.78 686.87, 78.91 681.47, 75.18 675.98 C71.44 670.5, 67.82 664.92, 64.34 659.27 C60.86 653.61, 57.51 647.87, 54.29 642.07 C51.07 636.26, 47.98 630.37, 45.03 624.42 C42.09 618.46, 39.27 612.44, 36.6 606.35 C33.93 600.27, 31.4 594.12, 29.01 587.92 C26.62 581.72, 24.37 575.46, 22.27 569.16 C20.17 562.85, 18.21 556.49, 16.4 550.1 C14.59 543.7, 12.92 537.26, 11.41 530.78 C9.9 524.31, 8.53 517.8, 7.31 511.26 C6.1 504.73, 5.03 498.16, 4.12 491.57 C3.21 484.99, 2.44 478.37, 1.83 471.75 C1.22 465.13, 0.76 458.49, 0.46 451.85 C0.15 445.21, 0 438.55, 0 431.9 C0 425.25, 0.15 418.6, 0.46 411.95 C0.76 405.31, 1.22 398.67, 1.83 392.05 C2.44 385.43, 3.21 378.82, 4.12 372.23 C5.03 365.65, 6.1 359.08, 7.31 352.54 C8.53 346, 9.9 339.49, 11.41 333.02 C12.92 326.54, 14.59 320.1, 16.4 313.71 C18.21 307.31, 20.17 300.95, 22.27 294.65 C24.37 288.34, 26.62 282.08, 29.01 275.88 C31.4 269.68, 33.93 263.53, 36.6 257.45 C39.27 251.36, 42.09 245.34, 45.03 239.39 C47.98 233.43, 51.07 227.54, 54.29 221.74 C57.51 215.93, 60.86 210.19, 64.34 204.53 C67.82 198.88, 71.44 193.3, 75.18 187.82 C78.91 182.33, 82.78 176.93, 86.77 171.62 C90.75 166.32, 94.86 161.1, 99.09 155.98 C103.31 150.87, 107.66 145.84, 112.11 140.93 C116.57 136.02, 121.14 131.2, 125.82 126.5 C130.49 121.8, 135.28 117.2, 140.17 112.72 C145.06 108.24, 150.05 103.87, 155.14 99.62 C160.23 95.38, 165.42 91.24, 170.7 87.24 C175.97 83.23, 181.35 79.34, 186.8 75.58 C192.26 71.83, 197.81 68.19, 203.43 64.69 C209.05 61.19, 214.76 57.82, 220.54 54.58 C226.32 51.35, 232.17 48.24, 238.09 45.28 C244.01 42.32, 250.01 39.49, 256.06 36.8 C262.11 34.11, 268.22 31.57, 274.39 29.17 C280.56 26.76, 286.78 24.5, 293.06 22.39 C299.33 20.28, 305.65 18.31, 312.01 16.49 C318.37 14.67, 324.78 12.99, 331.22 11.47 C337.66 9.95, 344.13 8.58, 350.64 7.35 C357.14 6.13, 363.67 5.06, 370.22 4.14 C376.77 3.22, 383.35 2.46, 389.93 1.84 C396.52 1.23, 403.12 0.77, 409.73 0.46 C416.34 0.15, 422.96 0, 429.57 0 C436.18 0, 442.8 0.15, 449.41 0.46 C456.01 0.77, 462.62 1.23, 469.2 1.84 C475.79 2.46, 482.37 3.22, 488.92 4.14 C495.47 5.06, 502 6.13, 508.5 7.35 C515 8.58, 521.48 9.95, 527.92 11.47 C534.36 12.99, 540.76 14.67, 547.13 16.49 C553.49 18.31, 559.81 20.28, 566.08 22.39 C572.35 24.5, 578.58 26.76, 584.75 29.17 C590.91 31.57, 597.03 34.11, 603.08 36.8 C609.13 39.49, 615.12 42.32, 621.04 45.28 C626.96 48.24, 632.82 51.35, 638.6 54.58 C644.38 57.82, 650.08 61.19, 655.71 64.69 C661.33 68.19, 666.88 71.83, 672.33 75.58 C677.79 79.34, 683.16 83.23, 688.44 87.24 C693.72 91.24, 698.91 95.38, 704 99.62 C709.08 103.87, 714.08 108.24, 718.97 112.72 C723.85 117.2, 728.64 121.8, 733.32 126.5 C737.99 131.2, 742.57 136.02, 747.02 140.93 C751.48 145.84, 755.82 150.87, 760.05 155.98 C764.27 161.1, 768.39 166.32, 772.37 171.62 C776.36 176.93, 780.22 182.33, 783.96 187.82 C787.7 193.3, 791.31 198.88, 794.79 204.53 C798.28 210.19, 801.63 215.93, 804.85 221.74 C808.07 227.54, 811.15 233.43, 814.1 239.39 C817.05 245.34, 819.86 251.36, 822.53 257.45 C825.21 263.53, 827.74 269.68, 830.13 275.88 C832.52 282.08, 834.77 288.34, 836.87 294.65 C838.97 300.95, 840.93 307.31, 842.74 313.71 C844.55 320.1, 846.21 326.54, 847.73 333.02 C849.24 339.49, 850.61 346, 851.82 352.54 C853.04 359.08, 854.1 365.65, 855.02 372.23 C855.93 378.82, 856.69 385.43, 857.3 392.05 C857.91 398.67, 858.37 405.31, 858.68 411.95 C858.98 418.6, 859.14 425.25, 859.14 431.9" stroke="#c6c7c7" stroke-width="4.5" fill="none" stroke-dasharray="1.5 10"></path></g><g transform="translate(1047.0816141764324 139.98552958170575) rotate(0 65 41.5)"><text x="65" y="33.5" font-family="Helvetica, Segoe UI Emoji" font-size="36px" fill="#000000" text-anchor="middle" style="white-space: pre;" direction="ltr">reading </text><text x="65" y="75" font-family="Helvetica, Segoe UI Emoji" font-size="36px" fill="#000000" text-anchor="middle" style="white-space: pre;" direction="ltr">code</text></g><g transform="translate(1221.3401184082031 374.0046691894531) rotate(0 57 41.5)"><text x="57" y="33.5" font-family="Helvetica, Segoe UI Emoji" font-size="36px" fill="#000000" text-anchor="middle" style="white-space: pre;" direction="ltr">writing </text><text x="57" y="75" font-family="Helvetica, Segoe UI Emoji" font-size="36px" fill="#000000" text-anchor="middle" style="white-space: pre;" direction="ltr">code</text></g><g transform="translate(732.3796691894531 10) rotate(0 121.5 41.5)"><text x="121.5" y="33.5" font-family="Helvetica, Segoe UI Emoji" font-size="36px" fill="#000000" text-anchor="middle" style="white-space: pre;" direction="ltr">group </text><text x="121.5" y="75" font-family="Helvetica, Segoe UI Emoji" font-size="36px" fill="#000000" text-anchor="middle" style="white-space: pre;" direction="ltr">communication</text></g><g transform="translate(419.413869222005 1193.401041666667) rotate(0 101.5 21)"><text x="101.5" y="33" font-family="Helvetica, Segoe UI Emoji" font-size="36px" fill="#000000" text-anchor="middle" style="white-space: pre;" direction="ltr">... and more!</text></g><g transform="translate(410.08859252929665 11.738993326822936) rotate(0 68.5 41.5)"><text x="68.5" y="33.5" font-family="Helvetica, Segoe UI Emoji" font-size="36px" fill="#000000" text-anchor="middle" style="white-space: pre;" direction="ltr">project </text><text x="68.5" y="75" font-family="Helvetica, Segoe UI Emoji" font-size="36px" fill="#000000" text-anchor="middle" style="white-space: pre;" direction="ltr">planning</text></g><g transform="translate(24.412638346353788 508.70951334635424) rotate(0 62.5 41.5)"><text x="62.5" y="33.5" font-family="Helvetica, Segoe UI Emoji" font-size="36px" fill="#000000" text-anchor="middle" style="white-space: pre;" direction="ltr">design </text><text x="62.5" y="75" font-family="Helvetica, Segoe UI Emoji" font-size="36px" fill="#000000" text-anchor="middle" style="white-space: pre;" direction="ltr">thinking</text></g><g transform="translate(106.72872924804688 179.157969156901) rotate(0 111 41.5)"><text x="111" y="33.5" font-family="Helvetica, Segoe UI Emoji" font-size="36px" fill="#000000" text-anchor="middle" style="white-space: pre;" direction="ltr">user-centered</text><text x="111" y="75" font-family="Helvetica, Segoe UI Emoji" font-size="36px" fill="#000000" text-anchor="middle" style="white-space: pre;" direction="ltr">development</text></g><g transform="translate(868.8342692057289 1144.4951883951824) rotate(0 75 41.5)"><text x="0" y="33.5" font-family="Helvetica, Segoe UI Emoji" font-size="36px" fill="#000000" text-anchor="start" style="white-space: pre;" direction="ltr">computer</text><text x="0" y="75" font-family="Helvetica, Segoe UI Emoji" font-size="36px" fill="#000000" text-anchor="start" style="white-space: pre;" direction="ltr">terminal</text></g><g transform="translate(606.7119242350258 584.5410766601564) rotate(0 83.5 21)"><text x="83.5" y="33" font-family="Helvetica, Segoe UI Emoji" font-size="36px" fill="#000000" text-anchor="middle" style="white-space: pre;" direction="ltr">Markdown</text></g><g transform="translate(601.5627950032548 453.3941141764325) rotate(0 91.5 21)"><text x="91.5" y="33" font-family="Helvetica, Segoe UI Emoji" font-size="36px" fill="#000000" text-anchor="middle" style="white-space: pre;" direction="ltr">HTML/CSS</text></g><g transform="translate(603.796681722005 317.10505167643237) rotate(0 84.5 41.5)"><text x="84.5" y="33.5" font-family="Helvetica, Segoe UI Emoji" font-size="36px" fill="#000000" text-anchor="middle" style="white-space: pre;" direction="ltr">Basic</text><text x="84.5" y="75" font-family="Helvetica, Segoe UI Emoji" font-size="36px" fill="#000000" text-anchor="middle" style="white-space: pre;" direction="ltr">JavaScript</text></g><g transform="translate(557.2087300618488 228.635711669922) rotate(0 133 21)"><text x="133" y="33" font-family="Helvetica, Segoe UI Emoji" font-size="36px" fill="#000000" text-anchor="middle" style="white-space: pre;" direction="ltr">HTML/CSS + JS</text></g><g transform="translate(532.5185241699218 127.38281250000011) rotate(0 119.5 21)"><text x="119.5" y="33" font-family="Helvetica, Segoe UI Emoji" font-size="36px" fill="#000000" text-anchor="middle" style="white-space: pre;" direction="ltr">... and beyond!</text></g><g transform="translate(1249.5146382649737 642.0427958170575) rotate(0 83 41.5)"><text x="83" y="33.5" font-family="Helvetica, Segoe UI Emoji" font-size="36px" fill="#000000" text-anchor="middle" style="white-space: pre;" direction="ltr">organizing</text><text x="83" y="75" font-family="Helvetica, Segoe UI Emoji" font-size="36px" fill="#000000" text-anchor="middle" style="white-space: pre;" direction="ltr">code</text></g><g transform="translate(1130.6296691894536 940.9114583333336) rotate(0 52.5 41.5)"><text x="52.5" y="33.5" font-family="Helvetica, Segoe UI Emoji" font-size="36px" fill="#000000" text-anchor="middle" style="white-space: pre;" direction="ltr">code </text><text x="52.5" y="75" font-family="Helvetica, Segoe UI Emoji" font-size="36px" fill="#000000" text-anchor="middle" style="white-space: pre;" direction="ltr">review</text></g><g transform="translate(10 817.1107991536467) rotate(0 93.5 21)"><text x="93.5" y="33" font-family="Helvetica, Segoe UI Emoji" font-size="36px" fill="#000000" text-anchor="middle" style="white-space: pre;" direction="ltr">deployment</text></g><g transform="translate(155.52668253580737 1007.4421183268238) rotate(0 73.5 41.5)"><text x="73.5" y="33.5" font-family="Helvetica, Segoe UI Emoji" font-size="36px" fill="#000000" text-anchor="middle" style="white-space: pre;" direction="ltr">data</text><text x="73.5" y="75" font-family="Helvetica, Segoe UI Emoji" font-size="36px" fill="#000000" text-anchor="middle" style="white-space: pre;" direction="ltr">modeling</text></g></svg>
